<svg version="1.0" width="22px" height="22px" class="convert-global-tag" fill="CurrentColor" viewBox="0 0 153.000000 149.000000" preserveAspectRatio="xMidYMid meet" xmlns="http://www.w3.org/2000/svg">
    <g transform="translate(0.000000,149.000000) scale(0.100000,-0.100000)" fill="CurrentColor" stroke="none">
        <path d="M1051 1457 c-64 -33 -104 -94 -109 -165 -4 -67 15 -106 41 -84 12 11
        13 19 5 43 -15 42 13 110 60 149 96 79 230 -4 207 -128 -4 -20 -26 -68 -50
        -107 -74 -119 -89 -171 -61 -210 22 -30 46 -4 39 41 -5 29 3 48 50 127 31 50
        60 111 65 135 19 81 -18 164 -88 200 -56 28 -105 28 -159 -1z"/>
        <path d="M959 1163 c-143 -141 -149 -148 -149 -187 l0 -41 -123 123 -122 122
        -202 0 -201 0 -31 -26 -31 -26 0 -212 0 -211 329 -329 c328 -327 328 -328 368
        -325 24 2 48 -3 63 -14 22 -15 57 -17 306 -17 l282 0 31 35 31 36 0 462 0 462
        -87 87 c-57 57 -95 88 -109 88 -33 0 -114 -139 -114 -195 0 -66 -44 -89 -77
        -39 -23 36 -6 96 57 200 72 117 66 154 -23 154 l-49 0 -149 -147z m-280 -159
        l131 -126 0 -388 c0 -271 -3 -391 -11 -396 -6 -3 -148 131 -335 317 l-324 324
        0 178 c0 104 4 186 10 198 10 18 23 19 204 19 l193 0 132 -126z"/>
        <path d="M302 1023 c-67 -33 -83 -119 -32 -177 38 -43 86 -54 135 -30 88 42
        87 173 -2 210 -42 18 -60 17 -101 -3z m107 -59 c27 -35 26 -59 -4 -89 -47 -48
        -115 -22 -115 45 0 29 6 43 22 54 34 24 73 20 97 -10z"/>
    </g>
</svg>
