<svg version="1.0" width="22px" height="22px" class="global-tag-add" fill="CurrentColor" viewBox="0 0 150.000000 155.000000" preserveAspectRatio="xMidYMid meet" xmlns="http://www.w3.org/2000/svg">
    <g transform="translate(0.000000,155.000000) scale(0.100000,-0.100000)" fill="CurrentColor" stroke="none">
        <path d="M196 1479 c-21 -5 -51 -18 -67 -30 -113 -80 -81 -312 49 -353 19 -6
        22 -4 22 19 0 18 -8 29 -26 37 -56 26 -84 151 -49 218 30 57 118 80 182 47 48
        -25 71 -67 99 -178 34 -140 57 -178 112 -192 18 -4 22 -1 22 19 0 13 -9 28
        -20 34 -29 15 -45 53 -69 162 -26 111 -59 167 -118 196 -50 25 -90 31 -137 21z"/>
        <path d="M490 1315 l0 -25 113 0 112 0 328 -328 c204 -204 327 -334 327 -346
        0 -28 -368 -396 -395 -396 -12 0 -46 26 -82 62 l-61 63 -4 76 c-12 194 -153
        335 -348 347 -75 4 -75 4 -127 55 l-53 51 0 190 c0 180 1 191 21 212 23 24 20
        54 -5 54 -8 0 -26 -14 -40 -31 l-26 -31 0 -206 0 -206 51 -52 52 -52 -49 -25
        c-66 -34 -127 -99 -161 -172 -24 -51 -28 -73 -28 -145 0 -72 4 -94 28 -146 36
        -77 104 -145 182 -181 51 -24 73 -28 145 -28 72 0 94 4 145 28 73 34 138 95
        171 160 l25 49 64 -61 c55 -53 68 -61 101 -61 37 0 49 10 241 203 195 195 203
        204 203 242 0 38 -9 48 -342 382 l-343 343 -122 0 -123 0 0 -25z m111 -614
        c69 -33 112 -74 150 -143 31 -58 34 -70 34 -148 0 -70 -5 -94 -25 -135 -116
        -238 -442 -246 -569 -15 -33 60 -36 71 -36 150 0 78 3 90 34 148 46 85 114
        139 206 163 49 13 158 2 206 -20z"/>
        <path d="M440 530 l0 -90 -90 0 -90 0 0 -30 0 -30 90 0 90 0 0 -90 0 -90 30 0
        30 0 0 90 0 90 90 0 90 0 0 30 0 30 -90 0 -90 0 0 90 0 90 -30 0 -30 0 0 -90z"/>
        <path d="M520 1180 c0 -6 16 -26 35 -46 60 -60 38 -134 -41 -134 -29 0 -44 8
        -75 39 -32 31 -39 35 -39 19 0 -32 29 -77 60 -93 60 -31 137 -10 165 45 31 60
        10 137 -45 165 -34 17 -60 20 -60 5z"/>
    </g>
</svg>
