<svg version="1.0" width="22px" height="22px" class="global-tag-edit" fill="CurrentColor" viewBox="0 0 150.000000 146.000000" preserveAspectRatio="xMidYMid meet" xmlns="http://www.w3.org/2000/svg">
    <g transform="translate(0.000000,146.000000) scale(0.100000,-0.100000)" fill="CurrentColor" stroke="none">
        <path d="M196 1389 c-21 -5 -51 -18 -67 -30 -113 -80 -81 -312 49 -353 19 -6
        22 -4 22 19 0 18 -8 29 -26 37 -56 26 -84 151 -49 218 30 57 118 80 182 47 48
        -25 71 -67 99 -178 34 -140 57 -178 112 -192 18 -4 22 -1 22 19 0 13 -9 28
        -20 34 -29 15 -45 53 -69 162 -26 111 -59 167 -118 196 -50 25 -90 31 -137 21z"/>
        <path d="M1263 1326 c-17 -8 -36 -23 -42 -35 -7 -12 -11 -109 -11 -268 l0
        -248 -238 238 -237 237 -123 0 -122 0 0 -25 0 -25 113 0 112 0 248 -248 247
        -247 0 -180 0 -180 -108 -108 c-64 -64 -115 -107 -127 -107 -13 0 -137 117
        -348 328 l-327 327 0 189 c0 180 1 191 21 212 23 24 20 54 -5 54 -8 0 -26 -14
        -40 -31 l-26 -31 0 -206 0 -207 343 -343 c414 -414 369 -392 517 -247 l97 96
        52 -80 c29 -44 59 -85 66 -91 14 -12 44 22 103 116 l32 51 0 510 0 510 -23 21
        c-31 29 -128 39 -174 18z m139 -53 c23 -28 28 -50 21 -99 l-6 -45 -81 3 -81 3
        -3 44 c-6 88 12 109 94 110 27 1 46 -5 56 -16z m16 -565 c2 -346 1 -368 -15
        -368 -10 0 -41 -3 -69 -6 -88 -11 -84 -27 -84 380 0 194 3 356 7 360 4 4 41 5
        83 4 l75 -3 3 -367z m-18 -439 c0 -17 -54 -89 -67 -89 -10 0 -63 79 -63 94 0
        3 29 6 65 6 40 0 65 -4 65 -11z"/>
        <path d="M520 1090 c0 -6 16 -26 35 -46 60 -60 38 -134 -41 -134 -29 0 -44 8
        -75 39 -32 31 -39 35 -39 19 0 -32 29 -77 60 -93 60 -31 137 -10 165 45 31 60
        10 137 -45 165 -34 17 -60 20 -60 5z"/>
    </g>
</svg>
