<svg version="1.0" width="22px" height="22px" class="global-tag-delete" fill="CurrentColor" viewBox="0 0 150.000000 146.000000" preserveAspectRatio="xMidYMid meet" xmlns="http://www.w3.org/2000/svg">
    <g transform="translate(0.000000,146.000000) scale(0.100000,-0.100000)" fill="CurrentColor" stroke="none">
        <path fill="CurrentColor" d="M196 1389 c-21 -5 -51 -18 -67 -30 -113 -80 -81 -312 49 -353 19 -6
        22 -4 22 19 0 18 -8 29 -26 37 -56 26 -84 151 -49 218 30 57 118 80 182 47 48
        -25 71 -67 99 -178 34 -140 57 -178 112 -192 18 -4 22 -1 22 19 0 13 -9 28
        -20 34 -29 15 -45 53 -69 162 -26 111 -59 167 -118 196 -50 25 -90 31 -137 21z"/>
        <path fill="#AE003D" d="M490 1225 l0 -25 113 0 112 0 328 -328 c204 -204 327 -334 327 -346
        0 -28 -368 -396 -395 -396 -12 0 -47 27 -85 65 l-64 65 3 73 c4 103 -24 174
        -98 248 -74 74 -145 102 -248 98 l-73 -3 -55 54 -55 54 0 190 c0 180 1 191 21
        212 23 24 20 54 -5 54 -8 0 -26 -14 -40 -31 l-26 -31 0 -206 0 -206 56 -57 57
        -57 -30 -15 c-49 -26 -119 -109 -142 -170 -58 -158 15 -344 164 -413 68 -32
        217 -34 285 -3 50 22 124 89 147 132 l14 29 69 -66 c60 -58 73 -66 106 -66 37
        0 48 10 241 203 195 195 203 204 203 242 0 38 -9 48 -342 382 l-343 343 -122
        0 -123 0 0 -25z m220 -870 l0 -55 -210 0 -210 0 0 55 0 55 210 0 210 0 0 -55z"/>
        <path fill="CurrentColor" d="M520 1090 c0 -6 16 -26 35 -46 60 -60 38 -134 -41 -134 -29 0 -44 8
        -75 39 -32 31 -39 35 -39 19 0 -32 29 -77 60 -93 60 -31 137 -10 165 45 31 60
        10 137 -45 165 -34 17 -60 20 -60 5z"/>
    </g>
</svg>
