<!--
<svg version="1.0" width="22px" height="22px" class="global-tag-add-filled" fill="CurrentColor" viewBox="0 0 150.000000 155.000000" preserveAspectRatio="xMidYMid meet" xmlns="http://www.w3.org/2000/svg">
    <g transform="translate(0.000000,155.000000) scale(0.100000,-0.100000)" fill="CurrentColor" stroke="none">
        <path d="M198 1480 c-51 -15 -94 -49 -118 -92 -33 -57 -34 -153 -2 -214 26
        -51 75 -94 108 -94 35 0 32 35 -5 54 -87 45 -102 194 -27 264 31 27 43 32 87
        32 57 0 106 -24 133 -65 9 -14 30 -78 47 -143 17 -64 39 -131 50 -149 19 -30
        72 -58 90 -47 18 11 9 45 -16 54 -32 12 -48 46 -74 159 -13 52 -31 111 -41
        132 -26 49 -82 95 -136 108 -49 12 -58 13 -96 1z"/>
        <path d="M289 1301 l-29 -29 0 -229 0 -229 34 -33 c32 -31 37 -33 67 -22 55
        19 181 14 246 -11 80 -29 172 -121 201 -201 25 -65 30 -191 11 -246 -11 -32
        -10 -34 57 -103 38 -38 82 -76 98 -85 58 -30 77 -17 293 200 111 111 207 215
        213 231 7 20 7 38 0 60 -6 20 -130 151 -358 379 l-348 348 -136 -3 -136 -3 24
        -94 c20 -79 29 -99 55 -121 43 -35 45 -83 4 -118 -22 -18 -35 -22 -59 -18 -71
        14 -118 85 -150 223 -21 94 -35 133 -48 133 -5 0 -23 -13 -39 -29z"/>
        <path d="M345 715 c-164 -67 -245 -255 -184 -422 46 -123 176 -213 309 -213
        133 0 263 90 309 213 46 126 18 252 -78 348 -98 98 -229 126 -356 74z m155
        -185 l0 -90 90 0 90 0 0 -30 0 -30 -90 0 -90 0 0 -90 0 -90 -30 0 -30 0 0 90
        0 90 -90 0 -90 0 0 30 0 30 90 0 90 0 0 90 0 90 30 0 30 0 0 -90z"/>
    </g>
</svg>
-->

<svg version="1.0" width="22px" height="22px" class="global-tag-add-filled" fill="none" viewBox="0 0 150.000000 155.000000" preserveAspectRatio="xMidYMid meet" xmlns="http://www.w3.org/2000/svg">
    <g transform="translate(0.000000,155.000000) scale(0.100000,-0.100000)" stroke="none">
        <path fill="#000" d="M198 1480 c-51 -15 -94 -49 -118 -92 -33 -57 -34 -153 -2 -214 26
        -51 75 -94 108 -94 35 0 32 35 -5 54 -87 45 -102 194 -27 264 31 27 43 32 87
        32 57 0 106 -24 133 -65 9 -14 30 -78 47 -143 17 -64 39 -131 50 -149 19 -30
        72 -58 90 -47 18 11 9 45 -16 54 -32 12 -48 46 -74 159 -13 52 -31 111 -41
        132 -26 49 -82 95 -136 108 -49 12 -58 13 -96 1z"/>
        <path stroke="#000000" stroke-width="30" d="M289 1301 l-29 -29 0 -229 0 -229 34 -33 c32 -31 37 -33 67 -22 55
        19 181 14 246 -11 80 -29 172 -121 201 -201 25 -65 30 -191 11 -246 -11 -32
        -10 -34 57 -103 38 -38 82 -76 98 -85 58 -30 77 -17 293 200 111 111 207 215
        213 231 7 20 7 38 0 60 -6 20 -130 151 -358 379 l-348 348 -136 -3 -136 -3 24
        -94 c20 -79 29 -99 55 -121 43 -35 45 -83 4 -118 -22 -18 -35 -22 -59 -18 -71
        14 -118 85 -150 223 -21 94 -35 133 -48 133 -5 0 -23 -13 -39 -29z"/>
        <path fill="green" d="M345 715 c-164 -67 -245 -255 -184 -422 46 -123 176 -213 309 -213
        133 0 263 90 309 213 46 126 18 252 -78 348 -98 98 -229 126 -356 74z m155
        -185 l0 -90 90 0 90 0 0 -30 0 -30 -90 0 -90 0 0 -90 0 -90 -30 0 -30 0 0 90
        0 90 -90 0 -90 0 0 30 0 30 90 0 90 0 0 90 0 90 30 0 30 0 0 -90z"/>
    </g>
</svg>
