<svg version="1.0" width="20px" height="20px" class="project-tag-delete" fill="CurrentColor" viewBox="0 0 288.000000 288.000000" preserveAspectRatio="xMidYMid meet" xmlns="http://www.w3.org/2000/svg">
    <g transform="translate(0.000000,288.000000) scale(0.100000,-0.100000)" fill="CurrentColor" stroke="none">
        <path d="M465 2506 c-43 -19 -83 -63 -96 -105 -6 -23 -9 -168 -7 -413 l3 -378
        108 -108 c59 -59 107 -113 107 -120 0 -7 -29 -40 -65 -73 -64 -61 -74 -75
        -113 -155 -54 -114 -56 -289 -5 -409 18 -41 75 -127 105 -157 57 -57 153 -107
        254 -133 80 -19 113 -19 204 4 126 32 184 66 274 161 l58 62 157 -155 c146
        -146 159 -156 203 -162 55 -8 102 0 143 26 17 10 181 170 367 356 350 352 358
        362 358 443 0 75 -2 77 -635 710 l-615 615 -388 2 c-306 2 -393 0 -417 -11z
        m724 -82 c25 -5 158 -131 629 -599 l597 -592 0 -41 c0 -42 -3 -45 -320 -364
        -176 -177 -334 -333 -352 -346 -58 -44 -80 -31 -250 141 l-151 152 5 127 c5
        115 4 134 -17 195 -52 157 -166 271 -323 323 -60 20 -81 22 -191 18 l-124 -6
        -118 119 -119 119 -3 328 c-3 373 0 397 59 418 37 13 617 20 678 8z m-202
        -1103 c105 -39 193 -124 242 -235 16 -38 21 -69 21 -142 0 -85 -3 -101 -32
        -161 -40 -85 -118 -165 -195 -201 -52 -24 -69 -27 -169 -27 -102 0 -115 2
        -168 29 -125 63 -201 166 -225 303 -11 63 -11 81 4 139 18 73 54 144 94 188
        49 54 161 114 241 130 43 8 133 -3 187 -23z"/>
        <path d="M755 2233 c-82 -42 -125 -114 -125 -210 0 -74 22 -126 72 -168 53
        -45 95 -58 170 -53 123 9 197 83 206 206 7 101 -35 180 -119 222 -47 24 -159
        26 -204 3z m171 -102 c60 -37 71 -147 20 -197 -30 -31 -89 -41 -141 -24 -91
        30 -102 170 -16 223 35 22 99 21 137 -2z"/>
        <path d="M695 1030 l-160 -5 0 -70 0 -70 325 0 325 0 3 68 c2 48 -1 68 -10 72
        -22 7 -315 10 -483 5z"/>
    </g>
</svg>
