<!--
<svg version="1.0" width="120px" height="120px" class="project-tag-delete" fill="#000000" viewBox="0 0 288.000000 288.000000" preserveAspectRatio="xMidYMid meet" xmlns="http://www.w3.org/2000/svg">
    <g transform="translate(0.000000,288.000000) scale(0.100000,-0.100000)" fill="CurrentColor" stroke="none">
        <path fill="#000000" d="M465 2506 c-43 -19 -83 -63 -96 -105 -6 -23 -9 -168 -7 -413 l3 -378
        108 -108 c59 -59 107 -113 107 -120 0 -7 -29 -40 -65 -73 -64 -61 -74 -75
        -113 -155 -54 -114 -56 -289 -5 -409 18 -41 75 -127 105 -157 57 -57 153 -107
        254 -133 80 -19 113 -19 204 4 126 32 184 66 274 161 l58 62 157 -155 c146
        -146 159 -156 203 -162 55 -8 102 0 143 26 17 10 181 170 367 356 350 352 358
        362 358 443 0 75 -2 77 -635 710 l-615 615 -388 2 c-306 2 -393 0 -417 -11z
        m724 -82 c25 -5 158 -131 629 -599 l597 -592 0 -41 c0 -42 -3 -45 -320 -364
        -176 -177 -334 -333 -352 -346 -58 -44 -80 -31 -250 141 l-151 152 5 127 c5
        115 4 134 -17 195 -52 157 -166 271 -323 323 -60 20 -81 22 -191 18 l-124 -6
        -118 119 -119 119 -3 328 c-3 373 0 397 59 418 37 13 617 20 678 8z m-202
        -1103 c105 -39 193 -124 242 -235 16 -38 21 -69 21 -142 0 -85 -3 -101 -32
        -161 -40 -85 -118 -165 -195 -201 -52 -24 -69 -27 -169 -27 -102 0 -115 2
        -168 29 -125 63 -201 166 -225 303 -11 63 -11 81 4 139 18 73 54 144 94 188
        49 54 161 114 241 130 43 8 133 -3 187 -23z"/>
        <path fill="#AE003D" d="M755 2233 c-82 -42 -125 -114 -125 -210 0 -74 22 -126 72 -168 53
        -45 95 -58 170 -53 123 9 197 83 206 206 7 101 -35 180 -119 222 -47 24 -159
        26 -204 3z m171 -102 c60 -37 71 -147 20 -197 -30 -31 -89 -41 -141 -24 -91
        30 -102 170 -16 223 35 22 99 21 137 -2z"/>
        <path fill="#AE003D" d="M695 1030 l-160 -5 0 -70 0 -70 325 0 325 0 3 68 c2 48 -1 68 -10 72
        -22 7 -315 10 -483 5z"/>
    </g>
</svg>
-->

<svg height="22px" width="22px" class="project-tag-delete" version="1.1" viewBox="0 0 32 32" xmlns="http://www.w3.org/2000/svg" xmlns:xlink="http://www.w3.org/1999/xlink">
    <g id="">
        <g id="">
          <path fill="none" stroke="black" stroke-width="1" d="M6.01331559,16.0133156 L4,14 L4,5.99961498 C4,4.88743329 4.89525812,4 5.99961498,4 L14,4 L27.3809027,17.3809027 C28.1640508,18.1640508 28.168017,19.4319586 27.3884415,20.2115341 L20.2115341,27.3884415 C19.433119,28.1668566 18.1646418,28.1646418 17.3809027,27.3809027 L14.9866844,24.9866844 C15.6282885,23.9791534 16,22.7829857 16,21.5 C16,17.9101489 13.0898511,15 9.5,15 C8.21701435,15 7.02084661,15.3717115 6.01331559,16.0133156 L6.01331559,16.0133156 L6.01331559,16.0133156 Z M9.5,11 C10.3284272,11 11,10.3284272 11,9.5 C11,8.67157283 10.3284272,8 9.5,8 C8.67157283,8 8,8.67157283 8,9.5 C8,10.3284272 8.67157283,11 9.5,11 L9.5,11 Z"/>
          <path fill="#AE003D" d="M9.5,27 C12.5375663,27 15,24.5375663 15,21.5 C15,18.4624337 12.5375663,16 9.5,16 C6.46243373,16 4,18.4624337 4,21.5 C4,24.5375663 6.46243373,27 9.5,27 L9.5,27 Z" id=""/>
          <path fill="white" d="M9,21 L10,21 L13,21 L13,22.5 L6,22.5 L6,21 L9,21 L9,21 Z"/>
        </g>
    </g>
</svg>
