<svg version="1.0" width="20px" height="20px" fill="CurrentColor" viewBox="0 0 288.000000 288.000000" preserveAspectRatio="xMidYMid meet" xmlns="http://www.w3.org/2000/svg">
    <g transform="translate(0.000000,288.000000) scale(0.100000,-0.100000)" fill="CurrentColor" stroke="none">
        <path d="M492 2493 c-21 -3 -47 -18 -70 -40 l-37 -36 -3 -370 c-2 -204 -1
        -384 2 -401 6 -31 125 -166 146 -166 5 0 10 -5 10 -12 0 -9 3 -9 12 0 7 7 22
        12 34 12 12 0 27 7 34 15 7 8 22 15 34 15 11 0 34 7 50 15 42 22 267 22 298 1
        12 -9 34 -16 49 -16 15 0 32 -7 39 -15 7 -8 21 -15 31 -15 9 0 24 -7 33 -15 8
        -8 20 -15 26 -15 6 0 13 -7 16 -15 4 -8 12 -15 19 -15 20 0 141 -136 165 -185
        12 -25 26 -47 31 -51 5 -3 9 -20 9 -37 0 -18 7 -41 15 -51 21 -28 21 -274 0
        -302 -8 -10 -15 -31 -15 -45 0 -15 -7 -32 -15 -39 -8 -7 -15 -21 -15 -31 0
        -10 -5 -21 -10 -24 -17 -10 5 -39 94 -127 148 -147 165 -156 258 -142 41 7 63
        27 399 363 336 336 356 358 363 399 9 60 -2 110 -33 145 -82 93 -1190 1191
        -1209 1198 -22 9 -693 10 -760 2z m454 -349 c19 -15 34 -34 34 -44 0 -10 7
        -23 15 -30 8 -7 15 -29 15 -50 0 -21 -7 -43 -15 -50 -8 -7 -15 -19 -15 -26 0
        -8 -7 -14 -15 -14 -8 0 -15 -7 -15 -15 0 -8 -6 -15 -14 -15 -7 0 -19 -7 -26
        -15 -7 -8 -29 -15 -50 -15 -21 0 -43 7 -50 15 -7 8 -20 15 -30 15 -10 0 -29
        15 -44 34 -21 29 -26 45 -26 95 0 39 5 63 13 68 8 4 16 16 20 26 3 9 13 17 21
        17 7 0 16 7 20 15 4 11 21 15 66 15 51 0 67 -5 96 -26z"/>
        <path d="M752 1415 c-7 -8 -28 -15 -46 -15 -19 0 -39 -7 -46 -15 -7 -8 -21
        -15 -32 -15 -10 0 -21 -7 -24 -15 -4 -8 -12 -15 -18 -15 -15 0 -136 -123 -136
        -138 0 -5 -7 -15 -15 -22 -8 -7 -15 -20 -15 -29 0 -9 -8 -29 -17 -46 -14 -24
        -17 -57 -17 -169 0 -97 4 -141 12 -144 6 -2 14 -19 18 -37 3 -19 12 -39 20
        -46 8 -6 14 -17 14 -24 0 -7 7 -15 15 -19 8 -3 15 -10 15 -17 0 -6 16 -25 37
        -42 20 -18 43 -40 52 -49 8 -10 21 -18 27 -18 6 0 17 -7 24 -15 7 -8 23 -15
        36 -15 13 0 27 -8 32 -17 9 -14 30 -17 166 -17 131 0 158 3 174 17 10 9 24 17
        30 17 28 0 167 114 186 151 12 25 32 57 43 70 6 8 14 32 18 54 4 22 12 46 18
        54 15 18 15 205 0 223 -6 7 -14 28 -18 47 -4 19 -14 41 -21 49 -8 7 -14 20
        -14 28 0 14 -9 25 -87 106 -49 50 -149 108 -186 108 -13 0 -32 7 -43 15 -27
        20 -184 20 -202 0z m432 -371 c23 -9 23 -169 0 -178 -20 -8 -628 -8 -648 0
        -13 5 -16 23 -16 89 0 57 4 85 13 88 18 8 632 8 651 1z"/>
    </g>
</svg>
