<svg version="1.0" width="22px" height="22px" class="project-tag-edit" fill="CurrentColor" viewBox="0 0 288.000000 288.000000" preserveAspectRatio="xMidYMid meet" xmlns="http://www.w3.org/2000/svg" >
    <g transform="translate(0.000000,288.000000) scale(0.100000,-0.100000)" fill="CurrentColor" stroke="none">
        <path d="M2373 2530 c-55 -6 -93 -28 -127 -74 -20 -27 -21 -41 -24 -447 -2
        -320 -5 -419 -15 -419 -6 0 -220 208 -474 463 l-463 462 -388 3 -388 3 -44
        -24 c-30 -16 -51 -37 -67 -67 l-24 -44 3 -388 3 -388 615 -615 c633 -633 635
        -635 710 -635 77 0 99 17 306 221 110 109 205 199 212 199 7 0 12 -15 12 -36
        0 -28 17 -61 82 -157 45 -67 91 -136 102 -154 37 -56 52 -46 151 103 50 75 96
        147 103 161 11 20 13 186 12 871 l-1 847 -24 37 c-14 21 -37 45 -52 55 -30 20
        -137 31 -220 23z m193 -107 c13 -14 26 -41 30 -59 10 -53 0 -174 -14 -183 -22
        -13 -260 -7 -274 7 -17 17 -17 158 -1 203 18 48 40 56 147 57 82 1 90 -1 112
        -25z m-1377 1 c24 -5 141 -116 515 -485 274 -271 490 -493 500 -513 25 -52 24
        -427 -1 -473 -19 -34 -445 -468 -477 -485 -53 -29 -56 -26 -673 597 -323 327
        -591 604 -595 617 -3 13 -6 165 -6 338 -1 355 3 376 59 396 36 13 617 20 678
        8z m1398 -350 c11 -15 13 -126 11 -630 -2 -337 -7 -616 -11 -621 -12 -11 -259
        -16 -275 -5 -10 7 -13 132 -13 618 1 335 1 614 1 621 0 32 26 38 150 37 108
        -1 125 -3 137 -20z m-28 -1358 c15 -17 -94 -176 -119 -176 -11 0 -20 4 -20 8
        0 4 -22 42 -49 83 -44 65 -48 76 -34 86 20 16 209 15 222 -1z"/>
        <path d="M755 2233 c-82 -42 -125 -114 -125 -210 0 -74 22 -126 72 -168 53
        -45 95 -58 170 -53 123 9 197 83 206 206 7 101 -35 180 -119 222 -47 24 -159
        26 -204 3z m171 -102 c60 -37 71 -147 20 -197 -30 -31 -89 -41 -141 -24 -91
        30 -102 170 -16 223 35 22 99 21 137 -2z"/>
    </g>
</svg>
